<svg aria-hidden="true" style="position: absolute; width: 0; height: 0; overflow: hidden;" version="1.1" xmlns="http://www.w3.org/2000/svg" xmlns:xlink="http://www.w3.org/1999/xlink">
<defs>
<symbol id="icon-facebook" viewBox="0 0 32 32">
<path fill="#afb1b8" style="fill: var(--color1, #afb1b8)" d="M21.341 5.315h2.925v-5.091c-1.233-0.143-2.662-0.224-4.11-0.224-0.052 0-0.104 0-0.157 0l0.008-0c-4.215 0-7.104 2.651-7.104 7.525v4.483h-4.649v5.692h4.649v14.321h5.703v-14.319h4.462l0.708-5.692h-5.171v-3.924c0-1.644 0.443-2.77 2.736-2.77z"></path>
</symbol>
<symbol id="icon-instagram" viewBox="0 0 32 32">
<path fill="#afb1b8" style="fill: var(--color1, #afb1b8)" d="M31.988 9.414c-0.074-1.702-0.349-2.871-0.743-3.884-0.425-1.112-1.055-2.060-1.851-2.839l-0.001-0.001c-0.78-0.793-1.725-1.42-2.78-1.828l-0.054-0.018c-1.020-0.394-2.182-0.668-3.884-0.743-1.713-0.082-2.257-0.101-6.606-0.101-4.347 0-4.891 0.019-6.599 0.094-1.7 0.074-2.871 0.349-3.882 0.743-1.113 0.424-2.061 1.055-2.84 1.851l-0.001 0.001c-0.792 0.78-1.419 1.725-1.826 2.78l-0.018 0.054c-0.395 1.020-0.669 2.182-0.744 3.884-0.082 1.713-0.101 2.257-0.101 6.606 0 4.347 0.019 4.891 0.094 6.599 0.075 1.702 0.351 2.871 0.744 3.884 0.427 1.111 1.056 2.058 1.85 2.839l0.001 0.001c0.8 0.813 1.771 1.444 2.834 1.844 1.020 0.395 2.184 0.671 3.884 0.744 1.708 0.075 2.253 0.094 6.599 0.094 4.348 0 4.893-0.019 6.599-0.094 1.702-0.074 2.871-0.349 3.884-0.743 2.159-0.851 3.836-2.527 4.667-4.631l0.019-0.055c0.394-1.020 0.669-2.184 0.744-3.884 0.075-1.708 0.093-2.253 0.093-6.599s-0.006-4.891-0.080-6.599zM29.106 22.488c-0.070 1.564-0.333 2.408-0.551 2.971-0.552 1.4-1.641 2.488-3.006 3.026l-0.036 0.013c-0.56 0.219-1.412 0.482-2.97 0.551-1.689 0.075-2.195 0.094-6.468 0.094-4.271 0-4.785-0.019-6.468-0.094-1.564-0.069-2.408-0.331-2.971-0.551-0.721-0.269-1.335-0.676-1.837-1.193l-0.001-0.001c-0.517-0.504-0.925-1.117-1.185-1.804l-0.011-0.034c-0.218-0.564-0.48-1.414-0.549-2.971-0.075-1.689-0.094-2.197-0.094-6.468 0-4.273 0.019-4.787 0.094-6.468 0.069-1.564 0.331-2.408 0.549-2.971 0.269-0.723 0.678-1.338 1.199-1.838l0.002-0.002c0.505-0.517 1.119-0.924 1.807-1.183l0.034-0.011c0.56-0.219 1.412-0.48 2.97-0.551 1.689-0.074 2.197-0.093 6.468-0.093 4.278 0 4.785 0.019 6.468 0.093 1.564 0.069 2.408 0.331 2.971 0.551 0.693 0.256 1.326 0.663 1.838 1.194 0.532 0.52 0.938 1.145 1.196 1.841 0.218 0.56 0.48 1.412 0.549 2.97 0.075 1.689 0.094 2.195 0.094 6.468 0 4.271-0.019 4.771-0.094 6.462z"></path>
<path fill="#afb1b8" style="fill: var(--color1, #afb1b8)" d="M16.069 7.787c-4.542 0.002-8.223 3.684-8.224 8.226v0c0 0 0 0.001 0 0.002 0 4.544 3.684 8.228 8.228 8.228s8.228-3.684 8.228-8.228c0-4.544-3.684-8.228-8.228-8.228-0.001 0-0.001 0-0.002 0h0zM16.069 21.348c-2.947-0-5.335-2.389-5.335-5.336s2.389-5.336 5.336-5.336c0 0 0.001 0 0.001 0h-0c2.947 0 5.337 2.389 5.337 5.337s-2.389 5.337-5.337 5.337v0zM26.541 7.462c0 1.061-0.86 1.921-1.921 1.921s-1.921-0.86-1.921-1.921v0c0-1.061 0.86-1.921 1.921-1.921s1.921 0.86 1.921 1.921v0z"></path>
</symbol>
<symbol id="icon-linkedin" viewBox="0 0 32 32">
<path fill="#afb1b8" style="fill: var(--color1, #afb1b8)" d="M32.012 32.020h0.008v-11.745c0-5.744-1.238-10.17-7.952-10.17-3.229 0-5.395 1.771-6.281 3.452h-0.093v-2.915h-6.369v21.377h6.631v-10.584c0-2.787 0.528-5.483 3.98-5.483 3.401 0 3.45 3.181 3.45 5.661v10.408h6.625zM0.528 10.642h6.639v21.378h-6.639v-21.378zM3.846 0c-2.124 0-3.846 1.722-3.846 3.846v0c0 2.121 1.723 3.881 3.846 3.881 2.121 0 3.844-1.758 3.844-3.881s-1.721-3.844-3.844-3.846h-0z"></path>
</symbol>
<symbol id="icon-twitter" viewBox="0 0 32 32">
<path fill="#afb1b8" style="fill: var(--color1, #afb1b8)" d="M32.020 6.082c-1.101 0.494-2.378 0.858-3.715 1.029l-0.068 0.007c1.361-0.817 2.383-2.079 2.875-3.582l0.013-0.046c-1.198 0.723-2.593 1.274-4.079 1.574l-0.084 0.014c-1.201-1.28-2.902-2.077-4.79-2.077-3.624 0-6.563 2.938-6.563 6.563 0 0.001 0 0.003 0 0.004v-0c0 0.52 0.043 1.021 0.152 1.497-5.458-0.266-10.286-2.882-13.53-6.865-0.564 0.95-0.899 2.093-0.903 3.315v0.001c0 2.273 1.172 4.289 2.915 5.455-1.092-0.030-2.109-0.326-2.996-0.824l0.033 0.017v0.072c0.003 3.167 2.238 5.811 5.216 6.444l0.043 0.008c-0.499 0.136-1.072 0.215-1.663 0.215-0.020 0-0.041-0-0.061-0l0.003 0c-0.419 0-0.844-0.024-1.242-0.112 0.85 2.6 3.263 4.512 6.133 4.572-2.216 1.747-5.049 2.802-8.128 2.802-0.004 0-0.008 0-0.012 0h0.001c-0.538 0-1.053-0.026-1.571-0.091 2.828 1.847 6.291 2.946 10.011 2.946 0.021 0 0.042-0 0.063-0h-0.003c12.080 0 18.684-10.006 18.684-18.68 0-0.288-0.010-0.57-0.024-0.849 1.3-0.937 2.392-2.066 3.26-3.358l0.030-0.047z"></path>
</symbol>
</defs>
</svg>
